<?xml version="1.0" encoding="utf-8"?>
<!-- Generator: Adobe Illustrator 16.0.0, SVG Export Plug-In . SVG Version: 6.00 Build 0)  -->
<!DOCTYPE svg PUBLIC "-//W3C//DTD SVG 1.1//EN" "http://www.w3.org/Graphics/SVG/1.1/DTD/svg11.dtd">
<svg version="1.1" xmlns="http://www.w3.org/2000/svg" xmlns:xlink="http://www.w3.org/1999/xlink" x="0px" y="0px" width="797px"
	 height="797px" viewBox="0 0 797 797" enable-background="new 0 0 797 797" xml:space="preserve">
<g id="sports">
</g>
<g id="finance">
	<path fill="#231F20" d="M705.02,634.117H121.741V137.545c0-5.597-5.328-10.133-11.902-10.133H91.98
		c-6.572,0-11.902,4.537-11.902,10.133V644.25v15.205c0,5.246,4.685,9.563,10.687,10.082c0.399,0.033,0.806,0.051,1.216,0.051
		h17.858H705.02c6.572,0,11.902-4.537,11.902-10.133V644.25C716.922,638.656,711.592,634.117,705.02,634.117z"/>
	<g>
		<g>
			<path fill="#231F20" d="M171.273,565.042c-1.486,0.981-2.984,1.938-4.539,2.81c-1.032,0.578-3.537,1.459,0.913-0.276
				c-0.189,0.07-0.382,0.129-0.578,0.176c4.004-1.031,7.742-0.012,11.214,3.059c1.072,1.838,2.144,3.677,3.215,5.516
				c1.348,3.204,0.129,5.675-1.025,8.298c0.248-0.563,0.598-1.084,0.93-1.598c0.457-0.706,0.964-1.378,1.469-2.049
				c-2.703,3.59-0.244,0.366,0.398-0.411c3.4-4.109,7.037-8.028,10.683-11.92c5.388-5.755,10.896-11.4,16.471-16.975
				c3.526-3.526,6.384-8.029,9.678-11.81c2.969-3.408,6.087-6.684,9.285-9.877c4.906-4.898,10.15-9.435,15.189-14.192
				c12.146-11.465,20.511-25.423,27.106-40.658c-6.544,0.844-13.088,1.687-19.632,2.53c13.494,13.613,23.502,31.479,40.122,41.681
				c9.93,6.095,21.495,8.247,32.881,9.554c10.667,1.224,20.713-0.484,30.494-4.834c18.674-8.307,32.665-25.278,43.614-41.98
				c11.228-17.127,19.842-36.379,25.846-55.934c1.644-5.352,3.005-10.798,3.951-16.316c-8.036,0-16.071,0-24.107,0
				c2.729,19.555,11.03,40.965,30.16,49.761c20.699,9.518,43.331,3.073,63.21-5.337c-3.43,1.452-4.127,1.367-6.467,0.179
				c2.168,1.102-2.266-2.019-0.335-0.339c0.562,0.487,1.059,1.049,1.557,1.599c1.857,2.049-1.681-2.331,0.011-0.048
				c0.485,0.656,0.939,1.336,1.397,2.012c1.039,1.536,2.019,3.114,3.034,4.666c6.13,9.366,16.065,15.984,26.348,7.57
				c3.478-2.846,5.883-8.232,8.138-12.021c3.226-5.42,6.153-11.016,8.925-16.681c5.801-11.857,10.729-24.172,15.139-36.607
				c17.44-49.17,25.607-101.032,36.069-151.965c2.636-12.834,5.214-25.702,8.513-38.386c1.21-4.655,2.563-9.274,4.082-13.837
				c0.603-1.811,1.26-3.603,1.942-5.384c0.256-0.666,1.429-3.456,0-0.097c0.389-0.913,0.807-1.813,1.232-2.709
				c1.016-2.14,2.185-4.208,3.535-6.154c1.194-1.72-2.083,2.608-0.827,1.046c0.264-0.329,0.546-0.642,0.828-0.955
				c0.578-0.639,1.215-1.222,1.88-1.769c-3.916,3.221-0.688,0.612,0.771-0.047c-5.059,2.284-1.104,0.539,0.308,0.066
				c9.518-3.189,14.589-9.943,17.75-19.252c2.123-6.253,3.09-12.929,4.019-19.441c1.889-13.248,3.07-26.575,4.059-39.916
				c0.504-6.804-6.067-12.5-12.5-12.5c-7.194,0-11.997,5.708-12.5,12.5c-0.514,6.941-1.084,13.877-1.763,20.804
				c-0.276,2.828-0.587,5.653-0.913,8.476c-0.146,1.267-0.306,2.531-0.465,3.796c-0.201,1.539-0.209,1.604-0.025,0.194
				c-0.103,0.732-0.209,1.463-0.318,2.194c-0.929,6.315-2.014,12.753-4.236,18.761c-0.743,2.008,1.355-3.084,0.531-1.222
				c-0.172,0.389-0.363,0.768-0.556,1.146c-0.334,0.655-0.723,1.281-1.14,1.887c-0.592,0.861,2.63-2.945,0.579-0.91
				c-1.883,1.869,3.049-2.04,0.893-0.691c-3.083,1.927,3.234-1.074,0.165-0.01c-1.013,0.351-2.036,0.666-3.032,1.064
				c-11.294,4.512-16.934,13.879-21.433,24.742c-8.614,20.799-12.198,43.707-16.647,65.653
				c-10.36,51.104-18.924,102.971-37.009,152.082c-4.195,11.394-8.727,21.703-14.502,32.674c-2.678,5.085-5.59,10.044-8.668,14.896
				c-0.493,0.777-0.945,1.564-1.436,2.34c2.48-3.919,6.856-5.296,11.352-4.356c0.491,0.103,4.697,2.931,3.689,1.992
				c-2.222-2.068,1.367,2.018,0.026,0.186c-4.821-6.587-8.398-13.51-15.285-18.298c-10.112-7.03-20.886,0.499-30.61,3.426
				c-3.507,1.056-7.084,1.854-10.693,2.462c-1.496,0.227-1.51,0.229-0.04,0.008c-1.083,0.128-2.172,0.2-3.26,0.27
				c-1.731,0.111-3.468,0.093-5.2,0.032c-0.684-0.023-5.055-0.559-1.583-0.047c-1.559-0.229-3.09-0.606-4.605-1.026
				c-0.591-0.171-1.177-0.358-1.757-0.561c-2.961-0.988,2.436,1.172-0.38-0.122c-1.368-0.629-2.66-1.408-3.925-2.221
				c-0.503-0.334-0.997-0.682-1.48-1.043c1.325,1.03,1.46,1.104,0.404,0.223c-1.184-1.02-2.249-2.167-3.282-3.334
				c-0.874-1.063-0.827-0.977,0.143,0.257c-0.604-0.797-1.147-1.639-1.692-2.478c-0.953-1.47-1.767-3.025-2.55-4.59
				c-0.321-0.66-0.63-1.326-0.925-1.999c0.531,1.253,0.523,1.19-0.023-0.188c-0.722-1.885-1.304-3.82-1.86-5.76
				c-1.249-4.353-2.031-8.831-2.656-13.311c-1.695-12.148-22.082-11.817-24.107,0c-1.371,8.002-3.644,15.813-6.287,23.48
				c-0.738,2.143-1.53,4.267-2.338,6.385c-0.416,1.09-0.85,2.173-1.282,3.256c-0.06,0.15-1.555,3.74-0.563,1.403
				c-2.077,4.893-4.365,9.692-6.784,14.424c-4.728,9.247-10.184,18.129-16.398,26.45c1.422-1.903-0.991,1.246-1.037,1.304
				c-0.752,0.938-1.528,1.854-2.305,2.771c-1.526,1.8-3.129,3.531-4.761,5.234c-1.586,1.656-3.254,3.232-4.951,4.774
				c-0.829,0.753-1.687,1.474-2.544,2.194c-1.125,0.899-1.145,0.933-0.058,0.1c-0.577,0.438-1.16,0.868-1.749,1.289
				c-1.721,1.248-3.523,2.375-5.355,3.45c-0.895,0.524-1.815,1-2.736,1.476c-0.416,0.215-3.547,1.622-0.72,0.432
				c-1.843,0.775-3.752,1.378-5.677,1.908c-0.952,0.263-1.921,0.458-2.888,0.653c-1.427,0.235-1.292,0.234,0.403-0.005
				c-0.652,0.074-1.307,0.132-1.962,0.173c-4.894,0.37-9.876-0.359-13.731-1.027c-2.528-0.438-5.021-1.049-7.489-1.744
				c-1.117-0.315-2.215-0.693-3.312-1.073c-0.694-0.249-1.383-0.512-2.065-0.789c1.339,0.563,1.366,0.554,0.081-0.03
				c-1.81-0.852-3.53-1.877-5.21-2.959c-0.809-0.521-1.583-1.094-2.357-1.665c2.517,1.857-0.001-0.092-0.417-0.451
				c-3.208-2.774-6.022-5.99-8.747-9.229c-6.561-7.802-12.718-15.869-19.78-23.243c-0.694-0.72-1.396-1.433-2.104-2.141
				c-5.163-5.208-16.377-4.988-19.632,2.53c-4.072,9.404-8.656,18.591-14.828,26.81c1.676-2.231-1.849,2.101-2.46,2.784
				c-1.251,1.398-2.568,2.736-3.898,4.06c-2.713,2.699-5.572,5.252-8.4,7.829c-7.503,6.839-14.601,14.011-21.16,21.767
				c-3.905,4.616-7.517,9.114-11.737,13.41c-9.04,9.201-18.108,18.484-25.977,28.727c-4.912,6.395-6.721,13.911-0.949,20.678
				c6.512,7.634,16.721,2.333,23.205-1.952c5.674-3.748,8.071-10.979,4.484-17.102C185.075,563.893,176.965,561.281,171.273,565.042
				L171.273,565.042z"/>
		</g>
	</g>
</g>
<g id="weather">
</g>
</svg>
