<?xml version="1.0" encoding="utf-8"?>
<!-- Generator: Adobe Illustrator 16.0.0, SVG Export Plug-In . SVG Version: 6.00 Build 0)  -->
<!DOCTYPE svg PUBLIC "-//W3C//DTD SVG 1.1//EN" "http://www.w3.org/Graphics/SVG/1.1/DTD/svg11.dtd">
<svg version="1.1" xmlns="http://www.w3.org/2000/svg" xmlns:xlink="http://www.w3.org/1999/xlink" x="0px" y="0px" width="801px"
	 height="801px" viewBox="0 0 801 801" enable-background="new 0 0 801 801" xml:space="preserve">
<g id="sports">
</g>
<g id="finance">
</g>
<g id="weather">
</g>
<g id="Layer_4">
	<g>
		<path fill="#231F20" d="M55.799,668.289v95.71h95.004C150.803,711.372,108.334,668.681,55.799,668.289z"/>
		<path fill="#231F20" d="M55.799,352.059v107.072c2.113-0.044,4.227-0.081,6.351-0.081c167.1,0,302.567,135.466,302.567,302.57
			c0,0.795-0.023,1.586-0.03,2.379h97.507C462.193,536.753,280.318,352.493,55.799,352.059z"/>
		<path fill="#231F20" d="M55.799,66.471v181.372c3.58-0.073,7.161-0.137,10.757-0.137c283.054,0,512.524,229.467,512.524,512.528
			c0,1.348-0.039,2.688-0.051,4.031h165.172C744.201,379.328,436.117,67.207,55.799,66.471z"/>
		<path fill="#231F20" d="M55.799,536.116v78.804c81.969,0.433,148.29,67.009,148.29,149.079h78.803
			C282.892,638.403,181.293,536.548,55.799,536.116z"/>
	</g>
</g>
</svg>
