<?xml version="1.0" encoding="utf-8"?>
<!-- Generator: Adobe Illustrator 16.0.0, SVG Export Plug-In . SVG Version: 6.00 Build 0)  -->
<!DOCTYPE svg PUBLIC "-//W3C//DTD SVG 1.1//EN" "http://www.w3.org/Graphics/SVG/1.1/DTD/svg11.dtd">
<svg version="1.1" xmlns="http://www.w3.org/2000/svg" xmlns:xlink="http://www.w3.org/1999/xlink" x="0px" y="0px" width="800px"
	 height="800px" viewBox="0 0 800 800" enable-background="new 0 0 800 800" xml:space="preserve">
<g id="sports">
</g>
<g id="finance">
</g>
<g id="weather">
	
		<circle display="none" fill="none" stroke="#231F20" stroke-width="10" stroke-miterlimit="10" cx="521.604" cy="274.802" r="110.989"/>
	<g>
		<g>
			<circle fill="#58595B" cx="494.769" cy="396" r="150.042"/>
		</g>
		<g>
			<path fill="#58595B" d="M629.686,530.801c2.429-2.43,6.37-2.43,8.801,0.002l46.953,46.951c2.43,2.434,2.43,6.375,0,8.805l0,0
				c-2.431,2.432-6.37,2.432-8.801,0l-46.953-46.955C627.254,537.172,627.254,533.232,629.686,530.801L629.686,530.801z"/>
			<path fill="#58595B" d="M494.769,586.355c3.438,0,6.223,2.785,6.223,6.223v66.4c0,3.438-2.785,6.227-6.223,6.227l0,0
				c-3.438,0-6.224-2.789-6.224-6.227v-66.4C488.545,589.141,491.331,586.355,494.769,586.355L494.769,586.355z"/>
			<path fill="#58595B" d="M494.769,126.795c3.438,0,6.223,2.786,6.223,6.223v66.401c0,3.438-2.785,6.226-6.223,6.226l0,0
				c-3.438,0-6.224-2.788-6.224-6.226v-66.401C488.545,129.581,491.331,126.795,494.769,126.795L494.769,126.795z"/>
			<path fill="#58595B" d="M684.979,205.498c2.433,2.429,2.436,6.367,0.007,8.8l-46.918,46.988c-2.428,2.434-6.367,2.439-8.802,0.01
				l0,0c-2.431-2.429-2.432-6.37-0.004-8.803l46.918-46.988C678.609,203.071,682.546,203.068,684.979,205.498L684.979,205.498z"/>
			<path fill="#58595B" d="M763.974,395.988c0,3.438-2.784,6.223-6.222,6.223l-66.4,0.004c-3.439,0-6.228-2.783-6.229-6.224l0,0
				c0.003-3.437,2.791-6.223,6.229-6.223l66.4-0.001C761.189,389.766,763.974,392.551,763.974,395.988L763.974,395.988z"/>
			<path fill="#58595B" d="M302.525,587.402c-2.379-2.479-2.299-6.416,0.182-8.797l47.918-45.967c2.48-2.383,6.42-2.303,8.803,0.18
				l0,0c2.377,2.48,2.293,6.42-0.188,8.803l-47.919,45.965C308.842,589.967,304.905,589.885,302.525,587.402L302.525,587.402z"/>
			<path fill="#58595B" d="M304.668,205.387c2.435-2.427,6.374-2.423,8.8,0.011l46.891,47.016c2.427,2.434,2.423,6.375-0.011,8.803
				l0,0c-2.434,2.427-6.373,2.42-8.802-0.014l-46.889-47.016C302.229,211.753,302.234,207.814,304.668,205.387L304.668,205.387z"/>
			<path fill="#58595B" d="M225.563,396.202c-0.003-3.438,2.781-6.226,6.217-6.228l66.401-0.05c3.439-0.002,6.229,2.781,6.23,6.219
				l0,0c0.003,3.438-2.782,6.224-6.22,6.228l-66.401,0.049C228.354,402.422,225.565,399.64,225.563,396.202L225.563,396.202z"/>
		</g>
		<path fill="#231F20" stroke="#FFFFFF" stroke-width="5" stroke-miterlimit="10" d="M434.333,436.999
			c-3.322-69.809-65.796-108.084-136.426-108.084C225.142,328.915,170,385,166.187,463.328
			c-72.52-5.662-130.16,45.039-130.16,103.879c0,58.844,47.7,105.779,106.542,105.779c4.268,0,8.466,0.486,12.602,0
			c1.634,0.492,3.364,0,5.16,0c0,0,281.946,0,296.983,0c63.779,0,115.484-42.809,115.484-106.59S532.333,428.332,434.333,436.999z"
			/>
	</g>
</g>
</svg>
