<?xml version="1.0" encoding="utf-8"?>
<!-- Generator: Adobe Illustrator 16.0.0, SVG Export Plug-In . SVG Version: 6.00 Build 0)  -->
<!DOCTYPE svg PUBLIC "-//W3C//DTD SVG 1.1//EN" "http://www.w3.org/Graphics/SVG/1.1/DTD/svg11.dtd">
<svg version="1.1" xmlns="http://www.w3.org/2000/svg" xmlns:xlink="http://www.w3.org/1999/xlink" x="0px" y="0px"
	 width="798.859px" height="798.859px" viewBox="0 0 798.859 798.859" enable-background="new 0 0 798.859 798.859"
	 xml:space="preserve">
<g id="sports">
	<path fill="#58595B" d="M223.884,611.981c10.751-16.357,18.852-34.482,25.095-53.526c5.763-17.575,10.346-35.495,15.027-53.379
		c5.551-21.199,11.357-42.288,15.381-63.852c5.88-31.519,8.813-63.905,5.182-95.882c-2.872-25.283-7.842-49.974-20.451-72.368
		c-15.789-28.04-39.325-50.213-63.04-71.935c-51.779,49.198-84.065,118.718-84.065,195.782
		C117.012,484.647,158.951,562.667,223.884,611.981z"/>
	<path fill="#58595B" d="M447.175,618.875c13.593-53.742,27.69-107.386,44.011-160.375c25.402-82.475,55.98-164.62,98.717-239.874
		c-49.486-56.293-122.021-91.831-202.863-91.831c-68.479,0-130.99,25.504-178.591,67.513c16.146,14.831,32.153,29.823,45.895,46.843
		c10.78,13.352,19.969,27.745,26.536,43.64c7.523,18.21,10.873,37.241,13.237,56.709c7.59,62.484-8.942,123.05-24.829,182.873
		c-6.434,24.229-13.372,48.566-24.352,71.195c-3.781,7.794-8.055,15.288-12.807,22.436c43.854,30.771,97.269,48.845,154.91,48.845
		c16.804,0,33.245-1.549,49.199-4.485C439.656,647.812,443.513,633.353,447.175,618.875z"/>
	<path fill="#58595B" d="M596.816,226.813c-18.287,32.581-34.345,66.438-48.607,100.935
		c-42.556,102.929-70.685,211.013-97.692,318.838c-1.13,4.511-2.243,9.019-3.328,13.529
		c120.177-27.341,209.877-134.838,209.877-263.293C657.065,332.386,634.482,273.232,596.816,226.813z"/>
</g>
<g id="finance">
</g>
<g id="weather">
</g>
</svg>
